<?xml version="1.0" encoding="UTF-8"?>
<!DOCTYPE svg PUBLIC "-//W3C//DTD SVG 1.1//EN" "http://www.w3.org/Graphics/SVG/1.1/DTD/svg11.dtd">
<!-- Creator: CorelDRAW 2017 -->
<svg xmlns="http://www.w3.org/2000/svg" xml:space="preserve" width="2.73477in" height="0.520803in" version="1.1" style="shape-rendering:geometricPrecision; text-rendering:geometricPrecision; image-rendering:optimizeQuality; fill-rule:evenodd; clip-rule:evenodd"
viewBox="0 0 10363.3 1973.56"
 xmlns:xlink="http://www.w3.org/1999/xlink">
 <defs>
  <style type="text/css">
   <![CDATA[
    .fil0 {fill:black}
    .fil1 {fill:#2B2A29;fill-rule:nonzero}
   ]]>
  </style>
 </defs>
 <g id="Layer_x0020_1">
  <metadata id="CorelCorpID_0Corel-Layer"/>
  <g id="_1626944618752">
   <g id="Layer_1_110_">
    <g>
     <path class="fil0" d="M767.4 656.44l-124.89 -118.04c14.55,-26.44 23.54,-56.35 23.54,-88.62 0,-102.32 -82.86,-185.19 -185.22,-185.19 -102.35,0 -185.34,82.83 -185.34,185.19 0,102.35 83,185.27 185.34,185.27 36.07,0 69.46,-10.76 97.94,-28.57l124.72 117.91c18.86,-24.94 40.13,-47.8 63.9,-67.94z"/>
     <path class="fil0" d="M1295.65 641.67l165.96 -279.27c16.35,4.67 33.3,8.04 51.07,8.04 102.54,0 185.4,-82.91 185.4,-185.27 0,-102.32 -82.86,-185.18 -185.4,-185.18 -102.35,0 -185.18,82.83 -185.18,185.18 0,50.81 20.48,96.72 53.59,130.23l-165.42 278.48c28.44,12.89 55.28,28.97 79.98,47.79z"/>
     <path class="fil0" d="M1868.01 875.47c-79.68,0 -147.18,50.64 -173.35,121.22l-230.58 -22.75c0,1.75 0.27,3.4 0.27,5.12 0,30.05 -3.31,59.41 -9.31,87.75l230.47 22.75c13.93,88.41 90.08,156.22 182.48,156.22 102.32,0 185.13,-82.83 185.13,-185.13 0.01,-102.27 -82.8,-185.18 -185.12,-185.18z"/>
     <path class="fil0" d="M1231.74 1603.78l-51.55 -225.23c-29.09,10.13 -59.36,17.38 -90.95,21.02l51.62 225.28c-59.18,30.97 -100.03,92.17 -100.03,163.63 0,102.32 82.83,185.09 185.34,185.09 102.32,0 185.13,-82.83 185.13,-185.09 0.15,-100.44 -79.88,-181.73 -179.57,-184.7z"/>
     <path class="fil0" d="M627.17 1068.48l-287 96.14c-33.12,-50.59 -90.13,-84.14 -154.99,-84.14 -102.36,0 -185.18,82.88 -185.18,185.19 0,102.42 82.83,185.31 185.18,185.31 102.27,0 185.33,-82.88 185.33,-185.31 0,-4.28 -0.92,-8.21 -1.28,-12.41l287.92 -96.39c-12.99,-28.02 -23.29,-57.51 -29.97,-88.38z"/>
     <circle class="fil0" cx="1040.98" cy="979.05" r="317.63"/>
    </g>
   </g>
  </g>
  <g id="_1626944619936">
  </g>
  <g id="_1626944621184">
  </g>
  <g id="_1626944623040">
  </g>
  <g id="_1626944621632">
  </g>
  <g id="_1626944623104">
  </g>
  <g id="_1626944624000">
  </g>
  <g id="_1626944624576">
  </g>
  <g id="_1626944624256">
  </g>
  <g id="_1626944625280">
  </g>
  <g id="_1626944624224">
  </g>
  <g id="_1626944623520">
  </g>
  <g id="_1626944624416">
  </g>
  <g id="_1626944626336">
  </g>
  <g id="_1626944626208">
  </g>
  <g id="_1626944625472">
  </g>
  <polygon class="fil1" points="3087.2,1215.43 3087.2,1338.77 2591.57,1338.77 2591.57,554.59 2734.16,554.59 2734.16,1215.43 "/>
  <path id="1" class="fil1" d="M3171.29 1045.7c0,-52.05 7.73,-97.69 23.2,-136.93 15.46,-39.22 36.01,-71.85 61.66,-97.88 25.65,-26.02 55.07,-45.64 88.26,-58.84 33.2,-13.2 67.15,-19.8 101.84,-19.8 81.47,0 145.04,25.27 190.68,75.82 45.64,50.55 68.45,125.98 68.45,226.31 0,7.55 -0.18,16.04 -0.55,25.47 -0.39,9.43 -0.95,17.92 -1.7,25.45l-390.39 0c3.76,47.53 20.54,84.31 50.35,110.33 29.79,26.03 72.98,39.04 129.56,39.04 33.2,0 63.56,-3.01 91.1,-9.06 27.53,-6.03 49.22,-12.44 65.06,-19.23l18.11 112.03c-7.55,3.77 -17.92,7.73 -31.12,11.88 -13.2,4.15 -28.29,7.92 -45.26,11.32 -16.98,3.39 -35.27,6.22 -54.89,8.47 -19.6,2.27 -39.6,3.4 -59.97,3.4 -52.04,0 -97.3,-7.73 -135.78,-23.2 -38.48,-15.46 -70.16,-36.97 -95.05,-64.5 -24.9,-27.54 -43.38,-59.97 -55.45,-97.32 -12.07,-37.34 -18.1,-78.27 -18.1,-122.77zm397.18 -61.11c0,-18.86 -2.64,-36.78 -7.92,-53.75 -5.28,-16.98 -13.01,-31.69 -23.2,-44.13 -10.17,-12.44 -22.63,-22.26 -37.34,-29.42 -14.71,-7.16 -32.24,-10.74 -52.62,-10.74 -21.11,0 -39.6,3.95 -55.44,11.88 -15.84,7.92 -29.24,18.29 -40.18,31.12 -10.94,12.82 -19.42,27.53 -25.45,44.13 -6.04,16.59 -10.19,33.57 -12.46,50.92l254.61 0z"/>
  <path id="2" class="fil1" d="M4054.81 554.59c16.61,28.66 35.07,63.75 55.45,105.24 20.36,41.49 41.1,85.05 62.23,130.69 21.13,45.64 42.06,92.04 62.81,139.18 20.74,47.16 39.79,90.72 57.14,130.71 17.35,-39.98 36.21,-83.55 56.57,-130.71 20.38,-47.14 41.12,-93.54 62.24,-139.18 21.13,-45.64 41.86,-89.2 62.24,-130.69 20.36,-41.49 38.85,-76.58 55.44,-105.24l128.44 0c6.97,57.33 13.58,118.25 19.6,182.74 6.22,64.51 11.7,130.51 16.78,198.04 4.91,67.51 9.62,135.41 13.77,203.68 4.15,68.27 7.92,134.84 10.94,199.72l-140.31 0c-3.01,-91.28 -6.79,-185.21 -10.94,-281.76 -4.15,-96.56 -10.56,-190.1 -19.05,-280.63 -8.3,17.35 -18.1,38.1 -29.42,62.24 -11.31,24.14 -23.38,50.35 -36.21,78.64 -12.82,28.29 -25.84,57.53 -39.03,87.69 -13.2,30.18 -26.03,59.41 -38.48,87.69 -12.46,28.29 -23.96,54.69 -34.52,79.22 -10.55,24.51 -19.6,45.44 -27.15,62.79l-106.37 0c-7.53,-17.35 -16.59,-38.48 -27.15,-63.36 -10.56,-24.9 -22.07,-51.49 -34.51,-79.79 -12.44,-28.29 -25.27,-57.51 -38.48,-87.69 -13.2,-30.17 -26.21,-59.21 -39.04,-87.13 -12.82,-27.91 -24.89,-54.13 -36.21,-78.64 -11.31,-24.53 -21.13,-45.09 -29.42,-61.68 -8.49,90.53 -14.89,184.07 -19.05,280.63 -4.15,96.56 -7.92,190.49 -10.94,281.76l-140.31 0c3.01,-64.88 6.79,-132.02 10.94,-201.42 4.16,-69.4 8.88,-138.24 13.77,-206.51 5.1,-68.27 10.56,-134.47 16.78,-198.59 6.22,-64.12 12.64,-123.34 19.62,-177.66l131.83 0z"/>
  <path id="3" class="fil1" d="M5111.48 1242.59c42.25,0 74.31,-2.27 96.18,-6.79l0 -151.64c-7.55,-2.25 -18.48,-4.52 -32.82,-6.79 -14.32,-2.25 -30.17,-3.39 -47.52,-3.39 -15.08,0 -30.36,1.13 -45.83,3.39 -15.46,2.27 -29.42,6.42 -41.86,12.46 -12.46,6.03 -22.45,14.52 -29.99,25.45 -7.55,10.94 -11.32,24.71 -11.32,41.31 0,32.43 10.19,54.87 30.55,67.33 20.36,12.44 47.91,18.66 82.61,18.66zm-11.31 -510.34c45.25,0 83.35,5.65 114.28,16.98 30.93,11.31 55.63,27.15 74.12,47.52 18.48,20.38 31.69,45.09 39.61,74.12 7.92,29.05 11.88,60.91 11.88,95.62l0 358.72c-21.13,4.52 -52.99,10 -95.62,16.41 -42.62,6.4 -90.71,9.61 -144.27,9.61 -35.46,0 -67.9,-3.39 -97.32,-10.17 -29.42,-6.79 -54.51,-17.74 -75.25,-32.82 -20.75,-15.08 -36.97,-34.7 -48.65,-58.84 -11.7,-24.14 -17.54,-53.93 -17.54,-89.4 0,-33.94 6.59,-62.62 19.8,-85.99 13.2,-23.39 31.12,-42.43 53.75,-57.14 22.63,-14.71 48.85,-25.27 78.64,-31.69 29.81,-6.42 60.91,-9.62 93.36,-9.62 15.08,0 30.93,0.94 47.52,2.83 16.61,1.88 34.33,5.09 53.19,9.61l0 -22.63c0,-15.83 -1.88,-30.93 -5.65,-45.25 -3.77,-14.34 -10.37,-26.97 -19.8,-37.91 -9.44,-10.94 -21.89,-19.42 -37.34,-25.47 -15.47,-6.03 -34.9,-9.06 -58.29,-9.06 -31.67,0 -60.72,2.27 -87.13,6.79 -26.41,4.54 -47.91,9.82 -64.5,15.84l-16.98 -110.89c17.35,-6.03 42.62,-12.07 75.82,-18.1 33.2,-6.04 68.64,-9.06 106.37,-9.06z"/>
  <path id="4" class="fil1" d="M5756.8 546.67c113.16,0 199.72,20.75 259.7,62.24 59.97,41.49 89.96,104.85 89.96,190.1 0,106.37 -52.43,178.42 -157.29,216.13 14.34,17.35 30.55,38.48 48.65,63.36 18.11,24.9 36.6,51.87 55.45,80.91 18.86,29.05 36.97,58.84 54.32,89.4 17.35,30.55 32.81,60.54 46.38,89.96l-159.55 0c-14.34,-27.15 -29.79,-54.5 -46.4,-82.04 -16.59,-27.54 -33.37,-54.32 -50.35,-80.34 -16.98,-26.03 -33.76,-50.55 -50.35,-73.55 -16.61,-23.01 -32.06,-43.56 -46.4,-61.68 -10.56,0.76 -19.62,1.13 -27.15,1.13 -7.55,0 -14.71,0 -21.5,0l-69.03 0 0 296.47 -142.58 0 0 -772.87c34.7,-7.53 71.67,-12.62 110.89,-15.26 39.24,-2.64 74.31,-3.97 105.24,-3.97zm10.19 123.34c-30.18,0 -58.1,1.13 -83.74,3.4l0 253.48 62.24 0c34.7,0 65.24,-1.89 91.65,-5.67 26.41,-3.76 48.47,-10.55 66.2,-20.36 17.74,-9.8 31.12,-23.01 40.18,-39.6 9.06,-16.61 13.58,-37.73 13.58,-63.38 0,-24.14 -4.52,-44.5 -13.58,-61.11 -9.06,-16.59 -22.07,-29.79 -39.04,-39.6 -16.98,-9.82 -37.15,-16.78 -60.54,-20.93 -23.38,-4.16 -49.02,-6.24 -76.94,-6.24z"/>
  <path id="5" class="fil1" d="M6422.51 1338.77l-136.93 0 0 -591.81 136.93 0 0 591.81zm14.71 -764.95c0,25.66 -8.31,46.03 -24.9,61.11 -16.59,15.08 -36.21,22.63 -58.84,22.63 -23.39,0 -43.38,-7.55 -59.97,-22.63 -16.59,-15.08 -24.9,-35.45 -24.9,-61.11 0,-26.39 8.31,-47.14 24.9,-62.23 16.59,-15.08 36.58,-22.63 59.97,-22.63 22.63,0 42.25,7.55 58.84,22.63 16.59,15.08 24.9,35.84 24.9,62.23z"/>
  <path id="6" class="fil1" d="M6775.71 1338.77c-37.91,-77.7 -76.76,-166.9 -116.55,-267.62 -39.8,-100.7 -76.01,-208.78 -108.45,-324.19l145.97 0c8.3,33.2 17.92,68.84 29.05,106.94 10.94,38.09 22.63,76.19 35.07,114.28 12.64,38.1 25.47,75.06 38.67,110.89 13.2,35.84 25.65,68.09 36.95,96.75 11.32,-28.66 23.59,-60.91 36.4,-96.75 12.83,-35.84 25.47,-72.79 38.1,-110.89 12.44,-38.09 24.32,-76.19 35.64,-114.28 11.5,-38.1 21.3,-73.75 29.6,-106.94l141.45 0c-32.43,115.41 -68.64,223.49 -108.43,324.19 -39.8,100.72 -78.65,189.92 -116.56,267.62l-116.92 0z"/>
  <path id="7" class="fil1" d="M7452.92 1242.59c42.25,0 74.31,-2.27 96.18,-6.79l0 -151.64c-7.55,-2.25 -18.48,-4.52 -32.82,-6.79 -14.32,-2.25 -30.17,-3.39 -47.52,-3.39 -15.08,0 -30.36,1.13 -45.83,3.39 -15.46,2.27 -29.42,6.42 -41.86,12.46 -12.46,6.03 -22.45,14.52 -29.99,25.45 -7.55,10.94 -11.32,24.71 -11.32,41.31 0,32.43 10.19,54.87 30.55,67.33 20.36,12.44 47.91,18.66 82.61,18.66zm-11.31 -510.34c45.25,0 83.35,5.65 114.28,16.98 30.93,11.31 55.63,27.15 74.12,47.52 18.48,20.38 31.69,45.09 39.61,74.12 7.92,29.05 11.88,60.91 11.88,95.62l0 358.72c-21.13,4.52 -52.99,10 -95.62,16.41 -42.62,6.4 -90.71,9.61 -144.27,9.61 -35.46,0 -67.9,-3.39 -97.32,-10.17 -29.42,-6.79 -54.51,-17.74 -75.25,-32.82 -20.75,-15.08 -36.97,-34.7 -48.65,-58.84 -11.7,-24.14 -17.54,-53.93 -17.54,-89.4 0,-33.94 6.59,-62.62 19.8,-85.99 13.2,-23.39 31.12,-42.43 53.75,-57.14 22.63,-14.71 48.85,-25.27 78.64,-31.69 29.81,-6.42 60.91,-9.62 93.36,-9.62 15.08,0 30.93,0.94 47.52,2.83 16.61,1.88 34.33,5.09 53.19,9.61l0 -22.63c0,-15.83 -1.88,-30.93 -5.65,-45.25 -3.77,-14.34 -10.37,-26.97 -19.8,-37.91 -9.44,-10.94 -21.89,-19.42 -37.34,-25.47 -15.47,-6.03 -34.9,-9.06 -58.29,-9.06 -31.67,0 -60.72,2.27 -87.13,6.79 -26.41,4.54 -47.91,9.82 -64.5,15.84l-16.98 -110.89c17.35,-6.03 42.62,-12.07 75.82,-18.1 33.2,-6.04 68.64,-9.06 106.37,-9.06z"/>
  <polygon id="8" class="fil1" points="7893.43,452.75 8022.42,452.75 8022.42,1548.11 7893.43,1548.11 "/>
  <path id="9" class="fil1" d="M8320.37 753.74l233.1 0 0 62.24 -233.1 0 0 311.18c0,33.18 2.82,60.15 8.47,80.91 5.67,20.74 13.77,36.78 24.33,48.08 10.56,11.32 23.39,18.86 38.48,22.63 15.08,3.77 31.69,5.65 49.79,5.65 30.93,0 55.83,-3.58 74.69,-10.74 18.86,-7.18 33.57,-13.77 44.13,-19.81l18.11 61.11c-10.56,6.79 -29.05,14.53 -55.45,23.2 -26.41,8.68 -55.07,13.01 -85.99,13.01 -36.21,0 -66.58,-4.71 -91.1,-14.14 -24.51,-9.43 -44.13,-23.77 -58.84,-43 -14.71,-19.23 -25.08,-43.19 -31.12,-71.85 -6.03,-28.67 -9.06,-62.62 -9.06,-101.84l0 -538.64 73.57 -13.58 0 185.58z"/>
  <path id="10" class="fil1" d="M8679.98 1045.7c0,-51.31 7.36,-96 22.07,-134.09 14.71,-38.1 33.94,-69.97 57.71,-95.62 23.77,-25.66 50.92,-44.7 81.47,-57.16 30.55,-12.44 62.05,-18.66 94.48,-18.66 71.67,0 128.81,23.38 171.44,70.15 42.62,46.77 63.93,118.82 63.93,216.13 0,6.04 -0.18,12.07 -0.57,18.11 -0.37,6.03 -0.94,11.7 -1.7,16.96l-410.75 0c2.27,71.67 19.99,126.74 53.19,165.21 33.2,38.48 85.99,57.71 158.41,57.71 39.98,0 71.67,-3.76 95.06,-11.31 23.38,-7.55 40.36,-13.96 50.92,-19.25l13.58 63.38c-10.56,6.03 -30.36,13.2 -59.41,21.5 -29.05,8.3 -63.18,12.44 -102.4,12.44 -51.31,0 -95.05,-7.53 -131.27,-22.63 -36.21,-15.08 -66,-36.21 -89.38,-63.36 -23.39,-27.15 -40.37,-59.41 -50.93,-96.75 -10.55,-37.34 -15.83,-78.27 -15.83,-122.77zm415.27 -46.4c-1.51,-61.11 -15.83,-108.63 -43,-142.58 -27.15,-33.94 -65.63,-50.92 -115.41,-50.92 -26.41,0 -49.98,5.28 -70.73,15.84 -20.74,10.56 -38.85,24.71 -54.31,42.43 -15.47,17.72 -27.54,38.28 -36.21,61.68 -8.68,23.38 -13.77,47.91 -15.28,73.55l334.93 0z"/>
  <path id="11" class="fil1" d="M9603.11 1351.21c-45.26,0 -85.25,-7.16 -119.95,-21.5 -34.7,-14.34 -63.56,-34.88 -86.56,-61.66 -23.01,-26.78 -40.55,-58.84 -52.62,-96.18 -12.07,-37.34 -18.1,-78.65 -18.1,-123.92 0,-46.01 6.22,-87.87 18.66,-125.6 12.44,-37.72 30.36,-70.15 53.75,-97.32 23.38,-27.15 51.66,-48.08 84.86,-62.79 33.2,-14.71 70.54,-22.07 112.03,-22.07 31.69,0 61.3,2.64 88.83,7.92 27.54,5.28 48.85,12.07 63.94,20.36l-19.25 63.38c-15.08,-7.55 -32.06,-13.59 -50.92,-18.11 -18.86,-4.52 -44.13,-6.79 -75.82,-6.79 -64.87,0 -114.1,20.93 -147.67,62.79 -33.57,41.88 -50.35,101.29 -50.35,178.22 0,34.7 3.77,66.58 11.31,95.62 7.55,29.05 19.81,53.95 36.79,74.69 16.96,20.75 38.85,36.97 65.63,48.67 26.78,11.68 59.41,17.53 97.87,17.53 31.69,0 58.29,-3.58 79.79,-10.74 21.5,-7.18 37.15,-13.4 46.95,-18.68l15.84 63.38c-13.58,7.53 -34.88,14.89 -63.93,22.07 -29.05,7.16 -59.41,10.74 -91.1,10.74z"/>
  <path id="12" class="fil1" d="M9907.28 1338.77l0 -864.52 73.55 -13.58 0 310.05c24.14,-9.06 48.65,-16.04 73.55,-20.93 24.9,-4.91 49.79,-7.36 74.69,-7.36 45.26,0 82.98,6.4 113.16,19.23 30.17,12.83 54.31,31.12 72.42,54.89 18.1,23.75 30.73,52.23 37.91,85.43 7.16,33.2 10.74,69.78 10.74,109.76l0 327.03 -73.55 0 0 -303.26c0,-41.49 -2.82,-76.57 -8.49,-105.24 -5.65,-28.66 -15.08,-52.05 -28.29,-70.15 -13.2,-18.11 -30.73,-31.12 -52.62,-39.04 -21.87,-7.92 -49.41,-11.88 -82.61,-11.88 -12.82,0 -26.59,1.12 -41.3,3.39 -14.71,2.27 -28.48,4.71 -41.3,7.36 -12.83,2.64 -24.33,5.48 -34.52,8.49 -10.17,3.01 -16.78,5.28 -19.8,6.79l0 503.55 -73.55 0z"/>
 </g>
</svg>
